<svg width="103" height="28" viewBox="0 0 103 28" fill="none" xmlns="http://www.w3.org/2000/svg">
<path d="M18.6889 7.50706C18.0625 2.98291 14.5824 0.35791 10.0682 0.35791C4.74856 0.35791 0.741455 4.23575 0.741455 10.8181C0.741455 17.3906 4.69884 21.2784 10.0682 21.2784C14.9105 21.2784 18.1221 18.1463 18.6889 14.2585L14.9701 14.2386C14.5028 16.625 12.554 17.9673 10.1179 17.9673C6.81674 17.9673 4.45026 15.4914 4.45026 10.8181C4.45026 6.22439 6.79685 3.66899 10.1278 3.66899C12.6037 3.66899 14.5426 5.07098 14.9701 7.50706H18.6889Z" fill="#101828"/>
<path d="M26.3029 21.3082C28.6992 21.3082 30.131 20.1846 30.7873 18.9019H30.9066V21H34.3668V10.7784C34.3668 6.74143 31.0756 5.52837 28.1623 5.52837C24.9506 5.52837 22.4847 6.96018 21.6892 9.74428L25.05 10.2215C25.408 9.17751 26.4222 8.28263 28.1821 8.28263C29.8526 8.28263 30.7674 9.13774 30.7674 10.6392V10.6988C30.7674 11.7329 29.6836 11.7826 26.989 12.071C24.0259 12.3892 21.1921 13.2741 21.1921 16.7144C21.1921 19.7173 23.3895 21.3082 26.3029 21.3082ZM27.2375 18.6633C25.7361 18.6633 24.6623 17.9772 24.6623 16.6548C24.6623 15.2727 25.8654 14.696 27.4762 14.4673C28.4208 14.338 30.31 14.0994 30.7773 13.7215V15.5213C30.7773 17.2215 29.4052 18.6633 27.2375 18.6633Z" fill="#101828"/>
<path d="M45.6125 5.72723H42.5998V2.06814H39.0003V5.72723H36.8327V8.51132H39.0003V17.0028C38.9804 19.8764 41.0685 21.2883 43.773 21.2088C44.7972 21.1789 45.5032 20.9801 45.8909 20.8508L45.2844 18.0369C45.0855 18.0866 44.6779 18.1761 44.2304 18.1761C43.3256 18.1761 42.5998 17.8579 42.5998 16.4062V8.51132H45.6125V5.72723Z" fill="#101828"/>
<path d="M53.0177 21.3082C55.414 21.3082 56.8458 20.1846 57.5021 18.9019H57.6214V21H61.0816V10.7784C61.0816 6.74143 57.7904 5.52837 54.8771 5.52837C51.6654 5.52837 49.1995 6.96018 48.4041 9.74428L51.7649 10.2215C52.1228 9.17751 53.137 8.28263 54.897 8.28263C56.5674 8.28263 57.4822 9.13774 57.4822 10.6392V10.6988C57.4822 11.7329 56.3984 11.7826 53.7038 12.071C50.7407 12.3892 47.9069 13.2741 47.9069 16.7144C47.9069 19.7173 50.1044 21.3082 53.0177 21.3082ZM53.9524 18.6633C52.451 18.6633 51.3771 17.9772 51.3771 16.6548C51.3771 15.2727 52.5802 14.696 54.191 14.4673C55.1356 14.338 57.0248 14.0994 57.4921 13.7215V15.5213C57.4921 17.2215 56.12 18.6633 53.9524 18.6633Z" fill="#101828"/>
<path d="M68.3004 0.636319H64.701V21H68.3004V0.636319Z" fill="#101828"/>
<path d="M78.6637 21.2983C83.1381 21.2983 85.9818 18.1463 85.9818 13.4233C85.9818 8.6903 83.1381 5.52837 78.6637 5.52837C74.1892 5.52837 71.3455 8.6903 71.3455 13.4233C71.3455 18.1463 74.1892 21.2983 78.6637 21.2983ZM78.6835 18.4147C76.2077 18.4147 74.9946 16.2073 74.9946 13.4133C74.9946 10.6193 76.2077 8.38206 78.6835 8.38206C81.1196 8.38206 82.3327 10.6193 82.3327 13.4133C82.3327 16.2073 81.1196 18.4147 78.6835 18.4147Z" fill="#101828"/>
<path d="M95.6789 27.0454C99.8053 27.0454 102.848 25.1562 102.848 21.2485V5.72723H99.2982V8.2528H99.0994C98.5525 7.1491 97.409 5.52837 94.7144 5.52837C91.1846 5.52837 88.4105 8.29257 88.4105 13.3139C88.4105 18.2954 91.1846 20.7812 94.7045 20.7812C97.3195 20.7812 98.5426 19.3792 99.0994 18.2556H99.2784V21.1491C99.2784 23.3963 97.7869 24.321 95.7386 24.321C93.571 24.321 92.6164 23.2968 92.1789 22.4019L88.9375 23.1875C89.5937 25.3252 91.7911 27.0454 95.6789 27.0454ZM95.7088 17.9573C93.3323 17.9573 92.0795 16.1079 92.0795 13.294C92.0795 10.5198 93.3125 8.48149 95.7088 8.48149C98.0255 8.48149 99.2982 10.4005 99.2982 13.294C99.2982 16.2073 98.0056 17.9573 95.7088 17.9573Z" fill="#101828"/>
</svg>
