<svg width="127" height="22" viewBox="0 0 127 22" fill="none" xmlns="http://www.w3.org/2000/svg">
<path d="M17.728 15.904C17.168 17.7147 16.188 19.068 14.788 19.964C13.388 20.8414 11.7547 21.28 9.88801 21.28C8.05867 21.28 6.47201 20.8974 5.12801 20.132C3.80268 19.3667 2.77601 18.2747 2.04801 16.856C1.33868 15.4374 0.984009 13.7387 0.984009 11.76C0.984009 9.78138 1.34801 8.08271 2.07601 6.66404C2.80401 5.24538 3.83067 4.15338 5.15601 3.38804C6.48134 2.62271 8.04001 2.24004 9.83201 2.24004C11.7173 2.24004 13.332 2.64138 14.676 3.44404C16.0387 4.22804 16.972 5.42271 17.476 7.02804L13.976 8.51204C13.6587 7.39204 13.1733 6.59871 12.52 6.13204C11.8667 5.64671 11.0267 5.40404 10 5.40404C8.46934 5.40404 7.24667 5.95471 6.33201 7.05604C5.43601 8.13871 4.98801 9.70671 4.98801 11.76C4.98801 13.7947 5.41734 15.3627 6.27601 16.464C7.13467 17.5654 8.37601 18.116 10 18.116C11.008 18.116 11.876 17.8454 12.604 17.304C13.3507 16.7627 13.8733 15.9414 14.172 14.84L17.728 15.904Z" fill="#101828"/>
<path d="M22.5613 4.98404C20.9746 4.98404 20.1813 4.30271 20.1813 2.94004C20.1813 1.55871 20.9746 0.868042 22.5613 0.868042C24.148 0.868042 24.9413 1.55871 24.9413 2.94004C24.9413 4.30271 24.148 4.98404 22.5613 4.98404ZM24.4653 7.00004V21H20.6293V7.00004H24.4653Z" fill="#101828"/>
<path d="M28.5316 21V7.00004H31.8636L32.1156 9.74404C32.4703 8.79204 33.0023 8.05471 33.7116 7.53204C34.4396 6.99071 35.3543 6.72004 36.4556 6.72004C37.109 6.72004 37.613 6.82271 37.9676 7.02804L37.5196 10.248C37.333 10.192 37.0996 10.1454 36.8196 10.108C36.5583 10.052 36.213 10.024 35.7836 10.024C35.205 10.024 34.6543 10.164 34.1316 10.444C33.6276 10.7054 33.2076 11.116 32.8716 11.676C32.5356 12.2174 32.3676 12.908 32.3676 13.748V21H28.5316Z" fill="#101828"/>
<path d="M46.4267 6.72004C48.2934 6.72004 49.74 7.12138 50.7667 7.92404C51.812 8.72671 52.5027 9.69738 52.8387 10.836L49.2547 12.124C48.8814 10.4254 47.9574 9.57604 46.4827 9.57604C45.4187 9.57604 44.588 9.94938 43.9907 10.696C43.412 11.4427 43.1227 12.5534 43.1227 14.028C43.1227 15.5214 43.4214 16.632 44.0187 17.36C44.6347 18.0694 45.4654 18.424 46.5107 18.424C48.1347 18.424 49.1054 17.5934 49.4227 15.932L52.8947 17.052C52.5774 18.3027 51.868 19.32 50.7667 20.104C49.684 20.888 48.2747 21.28 46.5387 21.28C45.0827 21.28 43.804 20.9907 42.7027 20.412C41.62 19.8334 40.78 19.0027 40.1827 17.92C39.5854 16.8374 39.2867 15.5307 39.2867 14C39.2867 12.4694 39.5854 11.1627 40.1827 10.08C40.7987 8.99738 41.6387 8.16671 42.7027 7.58804C43.7854 7.00938 45.0267 6.72004 46.4267 6.72004Z" fill="#101828"/>
<path d="M62.2594 6.72004C63.6594 6.72004 64.9007 7.00938 65.9834 7.58804C67.066 8.16671 67.906 8.99738 68.5034 10.08C69.1194 11.1627 69.4274 12.4694 69.4274 14C69.4274 15.5307 69.1194 16.8374 68.5034 17.92C67.906 19.0027 67.066 19.8334 65.9834 20.412C64.9007 20.9907 63.6594 21.28 62.2594 21.28C60.8407 21.28 59.59 20.9907 58.5074 20.412C57.4434 19.8334 56.6034 19.0027 55.9874 17.92C55.39 16.8374 55.0914 15.5307 55.0914 14C55.0914 12.4694 55.39 11.1627 55.9874 10.08C56.6034 8.99738 57.4434 8.16671 58.5074 7.58804C59.59 7.00938 60.8407 6.72004 62.2594 6.72004ZM62.2594 9.57604C61.214 9.57604 60.3927 9.94938 59.7954 10.696C59.2167 11.424 58.9274 12.5254 58.9274 14C58.9274 15.4747 59.2167 16.5854 59.7954 17.332C60.3927 18.06 61.214 18.424 62.2594 18.424C63.286 18.424 64.0887 18.06 64.6674 17.332C65.2647 16.5854 65.5634 15.4747 65.5634 14C65.5634 12.5254 65.2647 11.424 64.6674 10.696C64.0887 9.94938 63.286 9.57604 62.2594 9.57604Z" fill="#101828"/>
<path d="M79.0211 6.72004C80.4211 6.72004 81.6624 7.00938 82.7451 7.58804C83.8278 8.16671 84.6677 8.99738 85.2651 10.08C85.8811 11.1627 86.1891 12.4694 86.1891 14C86.1891 15.5307 85.8811 16.8374 85.2651 17.92C84.6677 19.0027 83.8278 19.8334 82.7451 20.412C81.6624 20.9907 80.4211 21.28 79.0211 21.28C77.6024 21.28 76.3518 20.9907 75.2691 20.412C74.2051 19.8334 73.3651 19.0027 72.7491 17.92C72.1517 16.8374 71.8531 15.5307 71.8531 14C71.8531 12.4694 72.1517 11.1627 72.7491 10.08C73.3651 8.99738 74.2051 8.16671 75.2691 7.58804C76.3518 7.00938 77.6024 6.72004 79.0211 6.72004ZM79.0211 9.57604C77.9758 9.57604 77.1544 9.94938 76.5571 10.696C75.9784 11.424 75.6891 12.5254 75.6891 14C75.6891 15.4747 75.9784 16.5854 76.5571 17.332C77.1544 18.06 77.9758 18.424 79.0211 18.424C80.0478 18.424 80.8504 18.06 81.4291 17.332C82.0264 16.5854 82.3251 15.4747 82.3251 14C82.3251 12.5254 82.0264 11.424 81.4291 10.696C80.8504 9.94938 80.0478 9.57604 79.0211 9.57604Z" fill="#101828"/>
<path d="M93.1788 0.868042V16.688C93.1788 17.3414 93.2908 17.7987 93.5148 18.06C93.7388 18.3214 94.1121 18.452 94.6348 18.452C94.9521 18.452 95.2135 18.4334 95.4188 18.396C95.6241 18.3587 95.8855 18.284 96.2028 18.172L95.8668 20.692C95.5495 20.8787 95.1481 21.0187 94.6628 21.112C94.1961 21.224 93.7295 21.28 93.2628 21.28C91.9001 21.28 90.9015 20.9534 90.2668 20.3C89.6508 19.628 89.3428 18.564 89.3428 17.108V0.868042H93.1788Z" fill="#101828"/>
<path d="M104.836 21.28C102.634 21.28 100.87 20.6454 99.5442 19.376C98.2189 18.088 97.5562 16.296 97.5562 14C97.5562 12.4694 97.8549 11.1627 98.4522 10.08C99.0495 8.99738 99.8802 8.16671 100.944 7.58804C102.027 7.00938 103.259 6.72004 104.64 6.72004C106.059 6.72004 107.263 7.00938 108.252 7.58804C109.242 8.14804 109.998 8.92271 110.52 9.91204C111.043 10.8827 111.304 11.9934 111.304 13.244C111.304 13.6174 111.295 13.972 111.276 14.308C111.258 14.644 111.23 14.9427 111.192 15.204H101.308C101.458 16.2867 101.831 17.0987 102.428 17.64C103.044 18.1627 103.838 18.424 104.808 18.424C105.63 18.424 106.292 18.2654 106.796 17.948C107.3 17.6307 107.692 17.192 107.972 16.632L111.024 17.808C110.576 18.9094 109.792 19.768 108.672 20.384C107.552 20.9814 106.274 21.28 104.836 21.28ZM104.612 9.54804C102.802 9.54804 101.71 10.5467 101.336 12.544H107.636C107.524 11.5734 107.207 10.836 106.684 10.332C106.18 9.80938 105.49 9.54804 104.612 9.54804Z" fill="#101828"/>
<path d="M120.155 21.28C118.736 21.28 117.439 21.028 116.263 20.524C115.106 20.02 114.163 19.3107 113.435 18.396L115.647 16.156C116.095 16.828 116.692 17.3787 117.439 17.808C118.186 18.2374 119.072 18.452 120.099 18.452C120.827 18.452 121.406 18.3494 121.835 18.144C122.283 17.92 122.507 17.5747 122.507 17.108C122.507 16.8094 122.404 16.5574 122.199 16.352C121.994 16.128 121.583 15.9507 120.967 15.82L118.503 15.316C116.879 14.98 115.722 14.476 115.031 13.804C114.359 13.1134 114.023 12.2267 114.023 11.144C114.023 10.3787 114.247 9.66004 114.695 8.98804C115.162 8.31604 115.852 7.77471 116.767 7.36404C117.682 6.93471 118.82 6.72004 120.183 6.72004C123.02 6.72004 125.055 7.58804 126.287 9.32404L123.991 11.564C123.58 10.9107 123.039 10.416 122.367 10.08C121.714 9.72538 121.023 9.54804 120.295 9.54804C118.652 9.54804 117.831 10.0054 117.831 10.92C117.831 11.2187 117.962 11.48 118.223 11.704C118.484 11.9094 118.96 12.0867 119.651 12.236L122.507 12.824C123.888 13.104 124.878 13.58 125.475 14.252C126.072 14.9054 126.371 15.6987 126.371 16.632C126.371 17.976 125.83 19.0867 124.747 19.964C123.683 20.8414 122.152 21.28 120.155 21.28Z" fill="#101828"/>
</svg>
