<svg width="88" height="28" viewBox="0 0 88 28" fill="none" xmlns="http://www.w3.org/2000/svg">
<path d="M3.29201 17.424H9.872V20H0.100006V0.540039H3.29201V17.424Z" fill="#101828"/>
<path d="M11.4774 12.216C11.4774 10.6667 11.7947 9.29471 12.4294 8.10004C13.0827 6.90537 13.9601 5.98137 15.0614 5.32804C16.1814 4.65604 17.4134 4.32004 18.7574 4.32004C19.9707 4.32004 21.0254 4.56271 21.9214 5.04804C22.8361 5.51471 23.5641 6.10271 24.1054 6.81204V4.57204H27.3254V20H24.1054V17.704C23.5641 18.432 22.8267 19.0387 21.8934 19.524C20.9601 20.0094 19.8961 20.252 18.7014 20.252C17.3761 20.252 16.1627 19.916 15.0614 19.244C13.9601 18.5534 13.0827 17.6014 12.4294 16.388C11.7947 15.156 11.4774 13.7654 11.4774 12.216ZM24.1054 12.272C24.1054 11.208 23.8814 10.284 23.4334 9.50004C23.0041 8.71604 22.4347 8.11871 21.7254 7.70804C21.0161 7.29737 20.2507 7.09204 19.4294 7.09204C18.6081 7.09204 17.8427 7.29737 17.1334 7.70804C16.4241 8.10004 15.8454 8.68804 15.3974 9.47204C14.9681 10.2374 14.7534 11.152 14.7534 12.216C14.7534 13.28 14.9681 14.2134 15.3974 15.016C15.8454 15.8187 16.4241 16.4347 17.1334 16.864C17.8614 17.2747 18.6267 17.48 19.4294 17.48C20.2507 17.48 21.0161 17.2747 21.7254 16.864C22.4347 16.4534 23.0041 15.856 23.4334 15.072C23.8814 14.2694 24.1054 13.336 24.1054 12.272Z" fill="#101828"/>
<path d="M45.406 4.57204L35.942 27.252H32.638L35.774 19.748L29.698 4.57204H33.254L37.594 16.332L42.102 4.57204H45.406Z" fill="#101828"/>
<path d="M61.9548 11.908C61.9548 12.4867 61.9175 13.0094 61.8428 13.476H50.0548C50.1482 14.708 50.6055 15.6974 51.4268 16.444C52.2482 17.1907 53.2562 17.564 54.4508 17.564C56.1682 17.564 57.3815 16.8454 58.0908 15.408H61.5348C61.0682 16.8267 60.2188 17.9934 58.9868 18.908C57.7735 19.804 56.2615 20.252 54.4508 20.252C52.9762 20.252 51.6508 19.9254 50.4748 19.272C49.3175 18.6 48.4028 17.6667 47.7308 16.472C47.0775 15.2587 46.7508 13.8587 46.7508 12.272C46.7508 10.6854 47.0682 9.29471 47.7028 8.10004C48.3562 6.88671 49.2615 5.95337 50.4188 5.30004C51.5948 4.64671 52.9388 4.32004 54.4508 4.32004C55.9068 4.32004 57.2042 4.63737 58.3428 5.27204C59.4815 5.90671 60.3682 6.80271 61.0028 7.96004C61.6375 9.09871 61.9548 10.4147 61.9548 11.908ZM58.6228 10.9C58.6042 9.72404 58.1842 8.78137 57.3628 8.07204C56.5415 7.36271 55.5242 7.00804 54.3108 7.00804C53.2095 7.00804 52.2668 7.36271 51.4828 8.07204C50.6988 8.76271 50.2322 9.70537 50.0828 10.9H58.6228Z" fill="#101828"/>
<path d="M68.2881 6.81204C68.7548 6.02804 69.3708 5.42137 70.1361 4.99204C70.9201 4.54404 71.8441 4.32004 72.9081 4.32004V7.62404H72.0961C70.8454 7.62404 69.8934 7.94137 69.2401 8.57604C68.6054 9.21071 68.2881 10.312 68.2881 11.88V20H65.0961V4.57204H68.2881V6.81204Z" fill="#101828"/>
<path d="M81.4422 20.252C80.2288 20.252 79.1368 20.0374 78.1662 19.608C77.2142 19.16 76.4582 18.5627 75.8982 17.816C75.3382 17.0507 75.0395 16.2014 75.0022 15.268H78.3062C78.3622 15.9214 78.6702 16.472 79.2302 16.92C79.8088 17.3494 80.5275 17.564 81.3862 17.564C82.2822 17.564 82.9728 17.396 83.4582 17.06C83.9622 16.7054 84.2142 16.2574 84.2142 15.716C84.2142 15.1374 83.9342 14.708 83.3742 14.428C82.8328 14.148 81.9648 13.84 80.7702 13.504C79.6128 13.1867 78.6702 12.8787 77.9422 12.58C77.2142 12.2814 76.5795 11.824 76.0382 11.208C75.5155 10.592 75.2542 9.78004 75.2542 8.77204C75.2542 7.95071 75.4968 7.20404 75.9822 6.53204C76.4675 5.84137 77.1582 5.30004 78.0542 4.90804C78.9688 4.51604 80.0142 4.32004 81.1902 4.32004C82.9448 4.32004 84.3542 4.76804 85.4182 5.66404C86.5008 6.54137 87.0795 7.74537 87.1542 9.27604H83.9622C83.9062 8.58537 83.6262 8.03471 83.1222 7.62404C82.6182 7.21337 81.9368 7.00804 81.0782 7.00804C80.2382 7.00804 79.5942 7.16671 79.1462 7.48404C78.6982 7.80137 78.4742 8.22137 78.4742 8.74404C78.4742 9.15471 78.6235 9.50004 78.9222 9.78004C79.2208 10.06 79.5848 10.284 80.0142 10.452C80.4435 10.6014 81.0782 10.7974 81.9182 11.04C83.0382 11.3387 83.9528 11.6467 84.6622 11.964C85.3902 12.2627 86.0155 12.7107 86.5382 13.308C87.0608 13.9054 87.3315 14.6987 87.3502 15.688C87.3502 16.5654 87.1075 17.3494 86.6222 18.04C86.1368 18.7307 85.4462 19.272 84.5502 19.664C83.6728 20.056 82.6368 20.252 81.4422 20.252Z" fill="#101828"/>
</svg>
