<svg width="130" height="28" viewBox="0 0 130 28" fill="none" xmlns="http://www.w3.org/2000/svg">
<path d="M22.52 25.1C21.8854 25.884 21.1107 26.4813 20.196 26.892C19.3 27.3027 18.3107 27.508 17.228 27.508C15.772 27.508 14.456 27.1907 13.28 26.556C12.104 25.94 10.76 24.8387 9.24804 23.252C7.47471 23.028 5.88804 22.4587 4.48804 21.544C3.10671 20.6293 2.02404 19.4533 1.24004 18.016C0.474708 16.56 0.092041 14.9547 0.092041 13.2C0.092041 11.2773 0.549374 9.55066 1.46404 8.01999C2.39737 6.47066 3.67604 5.25732 5.30004 4.37999C6.94271 3.50266 8.78138 3.06399 10.816 3.06399C12.8507 3.06399 14.68 3.50266 16.304 4.37999C17.928 5.25732 19.2067 6.47066 20.14 8.01999C21.0734 9.55066 21.54 11.2773 21.54 13.2C21.54 15.4773 20.896 17.4747 19.608 19.192C18.3387 20.9093 16.6494 22.104 14.54 22.776C15.0067 23.2613 15.4547 23.6067 15.884 23.812C16.332 24.036 16.808 24.148 17.312 24.148C18.5254 24.148 19.5894 23.6627 20.504 22.692L22.52 25.1ZM4.68404 13.2C4.68404 14.4133 4.94537 15.496 5.46804 16.448C6.00938 17.4 6.74671 18.1467 7.68004 18.688C8.61337 19.2107 9.65871 19.472 10.816 19.472C11.9734 19.472 13.0187 19.2107 13.952 18.688C14.8854 18.1467 15.6134 17.4 16.136 16.448C16.6774 15.496 16.948 14.4133 16.948 13.2C16.948 11.9867 16.6774 10.904 16.136 9.95199C15.6134 8.99999 14.8854 8.26266 13.952 7.73999C13.0187 7.19866 11.9734 6.92799 10.816 6.92799C9.65871 6.92799 8.61337 7.19866 7.68004 7.73999C6.74671 8.26266 6.00938 8.99999 5.46804 9.95199C4.94537 10.904 4.68404 11.9867 4.68404 13.2Z" fill="#101828"/>
<path d="M39.817 7.93599V23H35.673V21.208C35.0944 21.8613 34.4037 22.3653 33.601 22.72C32.7984 23.056 31.9304 23.224 30.997 23.224C29.0184 23.224 27.4504 22.6547 26.293 21.516C25.1357 20.3773 24.557 18.688 24.557 16.448V7.93599H28.925V15.804C28.925 18.2307 29.9424 19.444 31.977 19.444C33.0224 19.444 33.8624 19.108 34.497 18.436C35.1317 17.7453 35.449 16.728 35.449 15.384V7.93599H39.817Z" fill="#101828"/>
<path d="M51.0317 23.224C49.445 23.224 48.017 22.8973 46.7477 22.244C45.497 21.572 44.517 20.648 43.8077 19.472C43.0984 18.296 42.7437 16.9613 42.7437 15.468C42.7437 13.9747 43.0984 12.64 43.8077 11.464C44.517 10.288 45.497 9.37332 46.7477 8.71999C48.017 8.04799 49.445 7.71199 51.0317 7.71199C52.6184 7.71199 54.037 8.04799 55.2877 8.71999C56.5384 9.37332 57.5184 10.288 58.2277 11.464C58.937 12.64 59.2917 13.9747 59.2917 15.468C59.2917 16.9613 58.937 18.296 58.2277 19.472C57.5184 20.648 56.5384 21.572 55.2877 22.244C54.037 22.8973 52.6184 23.224 51.0317 23.224ZM51.0317 19.64C52.1517 19.64 53.0664 19.2667 53.7757 18.52C54.5037 17.7547 54.8677 16.7373 54.8677 15.468C54.8677 14.1987 54.5037 13.1907 53.7757 12.444C53.0664 11.6787 52.1517 11.296 51.0317 11.296C49.9117 11.296 48.9877 11.6787 48.2597 12.444C47.5317 13.1907 47.1677 14.1987 47.1677 15.468C47.1677 16.7373 47.5317 17.7547 48.2597 18.52C48.9877 19.2667 49.9117 19.64 51.0317 19.64Z" fill="#101828"/>
<path d="M71.9274 22.272C71.498 22.5893 70.966 22.832 70.3314 23C69.7154 23.1493 69.062 23.224 68.3714 23.224C66.5794 23.224 65.1887 22.7667 64.1993 21.852C63.2287 20.9373 62.7434 19.5933 62.7434 17.82V11.632H60.4194V8.27199H62.7434V4.60399H67.1114V8.27199H70.8633V11.632H67.1114V17.764C67.1114 18.3987 67.27 18.8933 67.5873 19.248C67.9233 19.584 68.39 19.752 68.9874 19.752C69.678 19.752 70.266 19.5653 70.7514 19.192L71.9274 22.272Z" fill="#101828"/>
<path d="M74.3793 7.93599H78.7473V23H74.3793V7.93599ZM76.5633 5.83599C75.7607 5.83599 75.1073 5.60266 74.6033 5.13599C74.0993 4.66932 73.8473 4.09066 73.8473 3.39999C73.8473 2.70932 74.0993 2.13066 74.6033 1.66399C75.1073 1.19732 75.7607 0.963989 76.5633 0.963989C77.366 0.963989 78.0193 1.18799 78.5233 1.63599C79.0273 2.08399 79.2793 2.64399 79.2793 3.31599C79.2793 4.04399 79.0273 4.65066 78.5233 5.13599C78.0193 5.60266 77.366 5.83599 76.5633 5.83599Z" fill="#101828"/>
<path d="M97.5572 15.524C97.5572 15.58 97.5292 15.972 97.4732 16.7H86.0772C86.2825 17.6333 86.7679 18.3707 87.5332 18.912C88.2985 19.4533 89.2505 19.724 90.3892 19.724C91.1732 19.724 91.8639 19.612 92.4612 19.388C93.0772 19.1453 93.6465 18.772 94.1692 18.268L96.4932 20.788C95.0745 22.412 93.0025 23.224 90.2772 23.224C88.5785 23.224 87.0759 22.8973 85.7692 22.244C84.4625 21.572 83.4545 20.648 82.7452 19.472C82.0359 18.296 81.6812 16.9613 81.6812 15.468C81.6812 13.9933 82.0265 12.668 82.7172 11.492C83.4265 10.2973 84.3879 9.37332 85.6012 8.71999C86.8332 8.04799 88.2052 7.71199 89.7172 7.71199C91.1919 7.71199 92.5265 8.02932 93.7212 8.66399C94.9159 9.29866 95.8492 10.2133 96.5212 11.408C97.2119 12.584 97.5572 13.956 97.5572 15.524ZM89.7452 11.016C88.7559 11.016 87.9252 11.296 87.2532 11.856C86.5812 12.416 86.1705 13.1813 86.0212 14.152H93.4412C93.2919 13.2 92.8812 12.444 92.2092 11.884C91.5372 11.3053 90.7159 11.016 89.7452 11.016Z" fill="#101828"/>
<path d="M109.621 7.71199C111.488 7.71199 112.991 8.27199 114.129 9.39199C115.287 10.512 115.865 12.1733 115.865 14.376V23H111.497V15.048C111.497 13.8533 111.236 12.9667 110.713 12.388C110.191 11.7907 109.435 11.492 108.445 11.492C107.344 11.492 106.467 11.8373 105.813 12.528C105.16 13.2 104.833 14.208 104.833 15.552V23H100.465V7.93599H104.637V9.69999C105.216 9.06532 105.935 8.57999 106.793 8.24399C107.652 7.88932 108.595 7.71199 109.621 7.71199Z" fill="#101828"/>
<path d="M129.541 22.272C129.111 22.5893 128.579 22.832 127.945 23C127.329 23.1493 126.675 23.224 125.985 23.224C124.193 23.224 122.802 22.7667 121.813 21.852C120.842 20.9373 120.357 19.5933 120.357 17.82V11.632H118.033V8.27199H120.357V4.60399H124.725V8.27199H128.477V11.632H124.725V17.764C124.725 18.3987 124.883 18.8933 125.201 19.248C125.537 19.584 126.003 19.752 126.601 19.752C127.291 19.752 127.879 19.5653 128.365 19.192L129.541 22.272Z" fill="#101828"/>
</svg>
