<svg width="127" height="28" viewBox="0 0 127 28" fill="none" xmlns="http://www.w3.org/2000/svg">
<path d="M8.45798 22.28C6.94598 22.28 5.48065 22.0654 4.06198 21.636C2.66198 21.2067 1.55131 20.6374 0.72998 19.928L1.98998 17.1C2.79265 17.7347 3.77265 18.2574 4.92998 18.668C6.10598 19.06 7.28198 19.256 8.45798 19.256C9.91398 19.256 10.9966 19.0227 11.706 18.556C12.434 18.0894 12.798 17.4734 12.798 16.708C12.798 16.148 12.5926 15.6907 12.182 15.336C11.79 14.9627 11.286 14.6734 10.67 14.468C10.054 14.2627 9.21398 14.0294 8.14998 13.768C6.65665 13.4134 5.44331 13.0587 4.50998 12.704C3.59531 12.3494 2.80198 11.7987 2.12998 11.052C1.47665 10.2867 1.14998 9.26003 1.14998 7.97203C1.14998 6.88937 1.43931 5.90937 2.01798 5.03203C2.61531 4.13603 3.50198 3.4267 4.67798 2.90403C5.87265 2.38137 7.32864 2.12003 9.04598 2.12003C10.2406 2.12003 11.4166 2.26937 12.574 2.56803C13.7313 2.8667 14.73 3.29603 15.57 3.85603L14.422 6.68403C13.5633 6.18003 12.6673 5.79737 11.734 5.53603C10.8006 5.2747 9.89531 5.14403 9.01798 5.14403C7.58064 5.14403 6.50731 5.3867 5.79798 5.87203C5.10731 6.35737 4.76198 7.00137 4.76198 7.80403C4.76198 8.36403 4.95798 8.82137 5.34998 9.17603C5.76065 9.5307 6.27398 9.8107 6.88998 10.016C7.50598 10.2214 8.34598 10.4547 9.40998 10.716C10.866 11.052 12.0606 11.4067 12.994 11.78C13.9273 12.1347 14.7206 12.6854 15.374 13.432C16.046 14.1787 16.382 15.1867 16.382 16.456C16.382 17.5387 16.0833 18.5187 15.486 19.396C14.9073 20.2734 14.0206 20.9734 12.826 21.496C11.6313 22.0187 10.1753 22.28 8.45798 22.28Z" fill="#101828"/>
<path d="M19.6553 7.04803H23.1553V22H19.6553V7.04803ZM21.4193 4.58403C20.7847 4.58403 20.2527 4.38803 19.8233 3.99603C19.394 3.58537 19.1793 3.08137 19.1793 2.48403C19.1793 1.8867 19.394 1.39203 19.8233 1.00003C20.2527 0.589366 20.7847 0.384033 21.4193 0.384033C22.054 0.384033 22.586 0.580033 23.0153 0.972032C23.4447 1.34537 23.6593 1.82137 23.6593 2.40003C23.6593 3.01603 23.4447 3.5387 23.0153 3.96803C22.6047 4.3787 22.0727 4.58403 21.4193 4.58403Z" fill="#101828"/>
<path d="M32.3691 22.196C31.1558 22.196 29.9704 22.0374 28.8131 21.72C27.6558 21.4027 26.7318 21.0014 26.0411 20.516L27.3851 17.856C28.0571 18.304 28.8598 18.668 29.7931 18.948C30.7451 19.2094 31.6784 19.34 32.5931 19.34C34.6838 19.34 35.7291 18.7894 35.7291 17.688C35.7291 17.1654 35.4584 16.8014 34.9171 16.596C34.3944 16.3907 33.5451 16.1947 32.3691 16.008C31.1371 15.8214 30.1291 15.6067 29.3451 15.364C28.5798 15.1214 27.9078 14.7014 27.3291 14.104C26.7691 13.488 26.4891 12.6387 26.4891 11.556C26.4891 10.1374 27.0771 9.00803 28.2531 8.16803C29.4478 7.30937 31.0531 6.88003 33.0691 6.88003C34.0958 6.88003 35.1224 7.00137 36.1491 7.24403C37.1758 7.46803 38.0158 7.77603 38.6691 8.16803L37.3251 10.828C36.0558 10.0814 34.6278 9.70803 33.0411 9.70803C32.0144 9.70803 31.2304 9.8667 30.6891 10.184C30.1664 10.4827 29.9051 10.884 29.9051 11.388C29.9051 11.948 30.1851 12.3494 30.7451 12.592C31.3238 12.816 32.2104 13.0307 33.4051 13.236C34.5998 13.4227 35.5798 13.6374 36.3451 13.88C37.1104 14.1227 37.7638 14.5334 38.3051 15.112C38.8651 15.6907 39.1451 16.512 39.1451 17.576C39.1451 18.976 38.5384 20.096 37.3251 20.936C36.1118 21.776 34.4598 22.196 32.3691 22.196Z" fill="#101828"/>
<path d="M55.8858 7.04803L48.8858 23.204C48.2325 24.828 47.4391 25.9667 46.5058 26.62C45.5725 27.292 44.4431 27.628 43.1178 27.628C42.3711 27.628 41.6338 27.5067 40.9058 27.264C40.1778 27.0214 39.5805 26.6854 39.1138 26.256L40.5138 23.68C40.8498 23.9974 41.2418 24.2494 41.6898 24.436C42.1565 24.6227 42.6231 24.716 43.0898 24.716C43.7058 24.716 44.2098 24.5574 44.6018 24.24C45.0125 23.9227 45.3858 23.3907 45.7218 22.644L45.9738 22.056L39.4498 7.04803H43.0898L47.7938 18.108L52.5258 7.04803H55.8858Z" fill="#101828"/>
<path d="M66.3613 6.88003C67.8173 6.88003 69.1146 7.19737 70.2533 7.83203C71.4106 8.4667 72.316 9.3627 72.9693 10.52C73.6226 11.6774 73.9493 13.012 73.9493 14.524C73.9493 16.036 73.6226 17.38 72.9693 18.556C72.316 19.7134 71.4106 20.6094 70.2533 21.244C69.1146 21.8787 67.8173 22.196 66.3613 22.196C64.3453 22.196 62.7493 21.524 61.5733 20.18V27.432H58.0733V7.04803H61.4053V9.00803C61.984 8.2987 62.6933 7.7667 63.5333 7.41203C64.392 7.05737 65.3346 6.88003 66.3613 6.88003ZM65.9693 19.2C67.2573 19.2 68.312 18.7707 69.1333 17.912C69.9733 17.0534 70.3933 15.924 70.3933 14.524C70.3933 13.124 69.9733 11.9947 69.1333 11.136C68.312 10.2774 67.2573 9.84803 65.9693 9.84803C65.1293 9.84803 64.3733 10.044 63.7013 10.436C63.0293 10.8094 62.4973 11.3507 62.1053 12.06C61.7133 12.7694 61.5173 13.5907 61.5173 14.524C61.5173 15.4574 61.7133 16.2787 62.1053 16.988C62.4973 17.6974 63.0293 18.248 63.7013 18.64C64.3733 19.0134 65.1293 19.2 65.9693 19.2Z" fill="#101828"/>
<path d="M85.7526 6.88003C87.6379 6.88003 89.1499 7.4307 90.2886 8.53203C91.4273 9.63337 91.9966 11.2667 91.9966 13.432V22H88.4966V13.88C88.4966 12.5734 88.1886 11.5934 87.5726 10.94C86.9566 10.268 86.0793 9.93203 84.9406 9.93203C83.6526 9.93203 82.6353 10.324 81.8886 11.108C81.1419 11.8734 80.7686 12.984 80.7686 14.44V22H77.2686V1.22403H80.7686V8.78403C81.3473 8.16803 82.0566 7.70137 82.8966 7.38403C83.7553 7.04803 84.7073 6.88003 85.7526 6.88003Z" fill="#101828"/>
<path d="M110.913 7.04803V22H107.581V20.096C107.021 20.768 106.321 21.2907 105.481 21.664C104.641 22.0187 103.735 22.196 102.765 22.196C100.767 22.196 99.1899 21.6454 98.0326 20.544C96.8939 19.424 96.3246 17.772 96.3246 15.588V7.04803H99.8246V15.112C99.8246 16.456 100.123 17.464 100.721 18.136C101.337 18.7894 102.205 19.116 103.325 19.116C104.575 19.116 105.565 18.7334 106.293 17.968C107.039 17.184 107.413 16.064 107.413 14.608V7.04803H110.913Z" fill="#101828"/>
<path d="M120.115 22.196C118.902 22.196 117.716 22.0374 116.559 21.72C115.402 21.4027 114.478 21.0014 113.787 20.516L115.131 17.856C115.803 18.304 116.606 18.668 117.539 18.948C118.491 19.2094 119.424 19.34 120.339 19.34C122.43 19.34 123.475 18.7894 123.475 17.688C123.475 17.1654 123.204 16.8014 122.663 16.596C122.14 16.3907 121.291 16.1947 120.115 16.008C118.883 15.8214 117.875 15.6067 117.091 15.364C116.326 15.1214 115.654 14.7014 115.075 14.104C114.515 13.488 114.235 12.6387 114.235 11.556C114.235 10.1374 114.823 9.00803 115.999 8.16803C117.194 7.30937 118.799 6.88003 120.815 6.88003C121.842 6.88003 122.868 7.00137 123.895 7.24403C124.922 7.46803 125.762 7.77603 126.415 8.16803L125.071 10.828C123.802 10.0814 122.374 9.70803 120.787 9.70803C119.76 9.70803 118.976 9.8667 118.435 10.184C117.912 10.4827 117.651 10.884 117.651 11.388C117.651 11.948 117.931 12.3494 118.491 12.592C119.07 12.816 119.956 13.0307 121.151 13.236C122.346 13.4227 123.326 13.6374 124.091 13.88C124.856 14.1227 125.51 14.5334 126.051 15.112C126.611 15.6907 126.891 16.512 126.891 17.576C126.891 18.976 126.284 20.096 125.071 20.936C123.858 21.776 122.206 22.196 120.115 22.196Z" fill="#101828"/>
</svg>
